<?xml version="1.0" encoding="UTF-8" standalone="no"?>
<!DOCTYPE svg PUBLIC "-//W3C//DTD SVG 1.1//EN"
 "http://www.w3.org/Graphics/SVG/1.1/DTD/svg11.dtd">
<!-- Generated by graphviz version 2.26.3 (20100126.1600)
 -->
<!-- Title: controllers_diagram Pages: 1 -->
<svg width="706pt" height="707pt"
 viewBox="0.00 0.00 706.00 707.00" xmlns="http://www.w3.org/2000/svg" xmlns:xlink="http://www.w3.org/1999/xlink">
<g id="graph1" class="graph" transform="scale(1 1) rotate(0) translate(4 703)">
<title>controllers_diagram</title>
<polygon fill="white" stroke="white" points="-4,5 -4,-703 703,-703 703,5 -4,5"/>
<!-- _diagram_info -->
<g id="node1" class="node"><title>_diagram_info</title>
<text text-anchor="start" x="429" y="-438.3" font-family="Times Roman,serif" font-size="13.00">Controllers diagram</text>
<text text-anchor="start" x="429" y="-421.3" font-family="Times Roman,serif" font-size="13.00">Date: Jul 25 2012 &#45; 20:53</text>
<text text-anchor="start" x="429" y="-404.3" font-family="Times Roman,serif" font-size="13.00">Migration version: 20120725203703</text>
<text text-anchor="start" x="429" y="-387.3" font-family="Times Roman,serif" font-size="13.00">Generated by RailRoady 1.0.8</text>
<text text-anchor="start" x="429" y="-370.3" font-family="Times Roman,serif" font-size="13.00">http://railroady.prestonlee.com</text>
</g>
<!-- HomeController -->
<g id="node2" class="node"><title>HomeController</title>
<polyline fill="none" stroke="black" points="33,-181.5 134,-181.5 "/>
<path fill="none" stroke="black" d="M134,-181.5C140,-181.5 146,-187.5 146,-193.5"/>
<polyline fill="none" stroke="black" points="146,-193.5 146,-343.5 "/>
<path fill="none" stroke="black" d="M146,-343.5C146,-349.5 140,-355.5 134,-355.5"/>
<polyline fill="none" stroke="black" points="134,-355.5 33,-355.5 "/>
<path fill="none" stroke="black" d="M33,-355.5C27,-355.5 21,-349.5 21,-343.5"/>
<polyline fill="none" stroke="black" points="21,-343.5 21,-193.5 "/>
<path fill="none" stroke="black" d="M21,-193.5C21,-187.5 27,-181.5 33,-181.5"/>
<text text-anchor="middle" x="83.5" y="-338.9" font-family="Times Roman,serif" font-size="14.00">HomeController</text>
<polyline fill="none" stroke="black" points="21,-329.5 146,-329.5 "/>
<text text-anchor="start" x="29" y="-312.9" font-family="Times Roman,serif" font-size="14.00">follow</text>
<text text-anchor="start" x="29" y="-294.9" font-family="Times Roman,serif" font-size="14.00">index</text>
<text text-anchor="start" x="29" y="-276.9" font-family="Times Roman,serif" font-size="14.00">profile</text>
<text text-anchor="start" x="29" y="-258.9" font-family="Times Roman,serif" font-size="14.00">public_profile</text>
<text text-anchor="start" x="29" y="-240.9" font-family="Times Roman,serif" font-size="14.00">unfollow</text>
<polyline fill="none" stroke="black" points="21,-231.5 146,-231.5 "/>
<polyline fill="none" stroke="black" points="21,-207.5 146,-207.5 "/>
<text text-anchor="start" x="29" y="-190.9" font-family="Times Roman,serif" font-size="14.00">_layout</text>
</g>
<!-- Admin::SectionsController -->
<g id="node3" class="node"><title>Admin::SectionsController</title>
<polyline fill="none" stroke="black" points="193,-121.5 365,-121.5 "/>
<path fill="none" stroke="black" d="M365,-121.5C371,-121.5 377,-127.5 377,-133.5"/>
<polyline fill="none" stroke="black" points="377,-133.5 377,-357.5 "/>
<path fill="none" stroke="black" d="M377,-357.5C377,-363.5 371,-369.5 365,-369.5"/>
<polyline fill="none" stroke="black" points="365,-369.5 193,-369.5 "/>
<path fill="none" stroke="black" d="M193,-369.5C187,-369.5 181,-363.5 181,-357.5"/>
<polyline fill="none" stroke="black" points="181,-357.5 181,-133.5 "/>
<path fill="none" stroke="black" d="M181,-133.5C181,-127.5 187,-121.5 193,-121.5"/>
<text text-anchor="middle" x="279" y="-352.9" font-family="Times Roman,serif" font-size="14.00">Admin::SectionsController</text>
<polyline fill="none" stroke="black" points="181,-343.5 377,-343.5 "/>
<text text-anchor="start" x="189" y="-326.9" font-family="Times Roman,serif" font-size="14.00">resource_class</text>
<text text-anchor="start" x="189" y="-308.9" font-family="Times Roman,serif" font-size="14.00">show</text>
<polyline fill="none" stroke="black" points="181,-299.5 377,-299.5 "/>
<text text-anchor="start" x="189" y="-282.9" font-family="Times Roman,serif" font-size="14.00">collection_path</text>
<text text-anchor="start" x="189" y="-264.9" font-family="Times Roman,serif" font-size="14.00">collection_url</text>
<text text-anchor="start" x="189" y="-246.9" font-family="Times Roman,serif" font-size="14.00">edit_resource_path</text>
<text text-anchor="start" x="189" y="-228.9" font-family="Times Roman,serif" font-size="14.00">edit_resource_url</text>
<text text-anchor="start" x="189" y="-210.9" font-family="Times Roman,serif" font-size="14.00">new_resource_path</text>
<text text-anchor="start" x="189" y="-192.9" font-family="Times Roman,serif" font-size="14.00">new_resource_url</text>
<text text-anchor="start" x="189" y="-174.9" font-family="Times Roman,serif" font-size="14.00">resource_path</text>
<text text-anchor="start" x="189" y="-156.9" font-family="Times Roman,serif" font-size="14.00">resource_url</text>
<polyline fill="none" stroke="black" points="181,-147.5 377,-147.5 "/>
<text text-anchor="start" x="189" y="-130.9" font-family="Times Roman,serif" font-size="14.00">_layout</text>
</g>
<!-- RegistrationsController -->
<g id="node4" class="node"><title>RegistrationsController</title>
<polyline fill="none" stroke="black" points="533,-501.5 685,-501.5 "/>
<path fill="none" stroke="black" d="M685,-501.5C691,-501.5 697,-507.5 697,-513.5"/>
<polyline fill="none" stroke="black" points="697,-513.5 697,-647.5 "/>
<path fill="none" stroke="black" d="M697,-647.5C697,-653.5 691,-659.5 685,-659.5"/>
<polyline fill="none" stroke="black" points="685,-659.5 533,-659.5 "/>
<path fill="none" stroke="black" d="M533,-659.5C527,-659.5 521,-653.5 521,-647.5"/>
<polyline fill="none" stroke="black" points="521,-647.5 521,-513.5 "/>
<path fill="none" stroke="black" d="M521,-513.5C521,-507.5 527,-501.5 533,-501.5"/>
<text text-anchor="middle" x="609" y="-642.9" font-family="Times Roman,serif" font-size="14.00">RegistrationsController</text>
<polyline fill="none" stroke="black" points="521,-633.5 697,-633.5 "/>
<text text-anchor="start" x="529" y="-616.9" font-family="Times Roman,serif" font-size="14.00">create</text>
<text text-anchor="start" x="529" y="-598.9" font-family="Times Roman,serif" font-size="14.00">new</text>
<text text-anchor="start" x="529" y="-580.9" font-family="Times Roman,serif" font-size="14.00">update</text>
<polyline fill="none" stroke="black" points="521,-571.5 697,-571.5 "/>
<text text-anchor="start" x="529" y="-554.9" font-family="Times Roman,serif" font-size="14.00">after_sign_up_path_for</text>
<polyline fill="none" stroke="black" points="521,-545.5 697,-545.5 "/>
<text text-anchor="start" x="529" y="-528.9" font-family="Times Roman,serif" font-size="14.00">_layout</text>
<text text-anchor="start" x="529" y="-510.9" font-family="Times Roman,serif" font-size="14.00">build_resource</text>
</g>
<!-- StagesController -->
<g id="node5" class="node"><title>StagesController</title>
<polyline fill="none" stroke="black" points="153,-541.5 261,-541.5 "/>
<path fill="none" stroke="black" d="M261,-541.5C267,-541.5 273,-547.5 273,-553.5"/>
<polyline fill="none" stroke="black" points="273,-553.5 273,-649.5 "/>
<path fill="none" stroke="black" d="M273,-649.5C273,-655.5 267,-661.5 261,-661.5"/>
<polyline fill="none" stroke="black" points="261,-661.5 153,-661.5 "/>
<path fill="none" stroke="black" d="M153,-661.5C147,-661.5 141,-655.5 141,-649.5"/>
<polyline fill="none" stroke="black" points="141,-649.5 141,-553.5 "/>
<path fill="none" stroke="black" d="M141,-553.5C141,-547.5 147,-541.5 153,-541.5"/>
<text text-anchor="middle" x="207" y="-644.9" font-family="Times Roman,serif" font-size="14.00">StagesController</text>
<polyline fill="none" stroke="black" points="141,-635.5 273,-635.5 "/>
<text text-anchor="start" x="149" y="-618.9" font-family="Times Roman,serif" font-size="14.00">index</text>
<text text-anchor="start" x="149" y="-600.9" font-family="Times Roman,serif" font-size="14.00">makeStage</text>
<polyline fill="none" stroke="black" points="141,-591.5 273,-591.5 "/>
<polyline fill="none" stroke="black" points="141,-567.5 273,-567.5 "/>
<text text-anchor="start" x="149" y="-550.9" font-family="Times Roman,serif" font-size="14.00">_layout</text>
</g>
<!-- AuthenticationsController -->
<g id="node6" class="node"><title>AuthenticationsController</title>
<polyline fill="none" stroke="black" points="433,-121.5 604,-121.5 "/>
<path fill="none" stroke="black" d="M604,-121.5C610,-121.5 616,-127.5 616,-133.5"/>
<polyline fill="none" stroke="black" points="616,-133.5 616,-319.5 "/>
<path fill="none" stroke="black" d="M616,-319.5C616,-325.5 610,-331.5 604,-331.5"/>
<polyline fill="none" stroke="black" points="604,-331.5 433,-331.5 "/>
<path fill="none" stroke="black" d="M433,-331.5C427,-331.5 421,-325.5 421,-319.5"/>
<polyline fill="none" stroke="black" points="421,-319.5 421,-133.5 "/>
<path fill="none" stroke="black" d="M421,-133.5C421,-127.5 427,-121.5 433,-121.5"/>
<text text-anchor="middle" x="518.5" y="-314.9" font-family="Times Roman,serif" font-size="14.00">AuthenticationsController</text>
<polyline fill="none" stroke="black" points="421,-305.5 616,-305.5 "/>
<text text-anchor="start" x="429" y="-288.9" font-family="Times Roman,serif" font-size="14.00">create</text>
<text text-anchor="start" x="429" y="-270.9" font-family="Times Roman,serif" font-size="14.00">destroy</text>
<text text-anchor="start" x="429" y="-252.9" font-family="Times Roman,serif" font-size="14.00">edit</text>
<text text-anchor="start" x="429" y="-234.9" font-family="Times Roman,serif" font-size="14.00">index</text>
<text text-anchor="start" x="429" y="-216.9" font-family="Times Roman,serif" font-size="14.00">new</text>
<text text-anchor="start" x="429" y="-198.9" font-family="Times Roman,serif" font-size="14.00">show</text>
<text text-anchor="start" x="429" y="-180.9" font-family="Times Roman,serif" font-size="14.00">update</text>
<polyline fill="none" stroke="black" points="421,-171.5 616,-171.5 "/>
<polyline fill="none" stroke="black" points="421,-147.5 616,-147.5 "/>
<text text-anchor="start" x="429" y="-130.9" font-family="Times Roman,serif" font-size="14.00">_layout</text>
</g>
<!-- AvatarsController -->
<g id="node7" class="node"><title>AvatarsController</title>
<polyline fill="none" stroke="black" points="13,-1.5 127,-1.5 "/>
<path fill="none" stroke="black" d="M127,-1.5C133,-1.5 139,-7.5 139,-13.5"/>
<polyline fill="none" stroke="black" points="139,-13.5 139,-127.5 "/>
<path fill="none" stroke="black" d="M139,-127.5C139,-133.5 133,-139.5 127,-139.5"/>
<polyline fill="none" stroke="black" points="127,-139.5 13,-139.5 "/>
<path fill="none" stroke="black" d="M13,-139.5C7,-139.5 1,-133.5 1,-127.5"/>
<polyline fill="none" stroke="black" points="1,-127.5 1,-13.5 "/>
<path fill="none" stroke="black" d="M1,-13.5C1,-7.5 7,-1.5 13,-1.5"/>
<text text-anchor="middle" x="70" y="-122.9" font-family="Times Roman,serif" font-size="14.00">AvatarsController</text>
<polyline fill="none" stroke="black" points="1,-113.5 139,-113.5 "/>
<text text-anchor="start" x="9" y="-96.9" font-family="Times Roman,serif" font-size="14.00">getSectionUrl</text>
<text text-anchor="start" x="9" y="-78.9" font-family="Times Roman,serif" font-size="14.00">getSections</text>
<text text-anchor="start" x="9" y="-60.9" font-family="Times Roman,serif" font-size="14.00">index</text>
<polyline fill="none" stroke="black" points="1,-51.5 139,-51.5 "/>
<polyline fill="none" stroke="black" points="1,-27.5 139,-27.5 "/>
<text text-anchor="start" x="9" y="-10.9" font-family="Times Roman,serif" font-size="14.00">_layout</text>
</g>
<!-- ApplicationController -->
<g id="node8" class="node"><title>ApplicationController</title>
<polyline fill="none" stroke="black" points="153,-401.5 367,-401.5 "/>
<path fill="none" stroke="black" d="M367,-401.5C373,-401.5 379,-407.5 379,-413.5"/>
<polyline fill="none" stroke="black" points="379,-413.5 379,-491.5 "/>
<path fill="none" stroke="black" d="M379,-491.5C379,-497.5 373,-503.5 367,-503.5"/>
<polyline fill="none" stroke="black" points="367,-503.5 153,-503.5 "/>
<path fill="none" stroke="black" d="M153,-503.5C147,-503.5 141,-497.5 141,-491.5"/>
<polyline fill="none" stroke="black" points="141,-491.5 141,-413.5 "/>
<path fill="none" stroke="black" d="M141,-413.5C141,-407.5 147,-401.5 153,-401.5"/>
<text text-anchor="middle" x="260" y="-486.9" font-family="Times Roman,serif" font-size="14.00">ApplicationController</text>
<polyline fill="none" stroke="black" points="141,-477.5 379,-477.5 "/>
<text text-anchor="start" x="149" y="-460.9" font-family="Times Roman,serif" font-size="14.00">_one_time_conditions_valid_18?</text>
<polyline fill="none" stroke="black" points="141,-451.5 379,-451.5 "/>
<polyline fill="none" stroke="black" points="141,-427.5 379,-427.5 "/>
<text text-anchor="start" x="149" y="-410.9" font-family="Times Roman,serif" font-size="14.00">_layout</text>
</g>
<!-- MessagesController -->
<g id="node9" class="node"><title>MessagesController</title>
<polyline fill="none" stroke="black" points="333,-541.5 460,-541.5 "/>
<path fill="none" stroke="black" d="M460,-541.5C466,-541.5 472,-547.5 472,-553.5"/>
<polyline fill="none" stroke="black" points="472,-553.5 472,-685.5 "/>
<path fill="none" stroke="black" d="M472,-685.5C472,-691.5 466,-697.5 460,-697.5"/>
<polyline fill="none" stroke="black" points="460,-697.5 333,-697.5 "/>
<path fill="none" stroke="black" d="M333,-697.5C327,-697.5 321,-691.5 321,-685.5"/>
<polyline fill="none" stroke="black" points="321,-685.5 321,-553.5 "/>
<path fill="none" stroke="black" d="M321,-553.5C321,-547.5 327,-541.5 333,-541.5"/>
<text text-anchor="middle" x="396.5" y="-680.9" font-family="Times Roman,serif" font-size="14.00">MessagesController</text>
<polyline fill="none" stroke="black" points="321,-671.5 472,-671.5 "/>
<text text-anchor="start" x="329" y="-654.9" font-family="Times Roman,serif" font-size="14.00">index</text>
<text text-anchor="start" x="329" y="-636.9" font-family="Times Roman,serif" font-size="14.00">read</text>
<text text-anchor="start" x="329" y="-618.9" font-family="Times Roman,serif" font-size="14.00">sendto</text>
<text text-anchor="start" x="329" y="-600.9" font-family="Times Roman,serif" font-size="14.00">user_ajax</text>
<polyline fill="none" stroke="black" points="321,-591.5 472,-591.5 "/>
<polyline fill="none" stroke="black" points="321,-567.5 472,-567.5 "/>
<text text-anchor="start" x="329" y="-550.9" font-family="Times Roman,serif" font-size="14.00">_layout</text>
</g>
</g>
</svg>
