<?xml version="1.0" encoding="UTF-8" standalone="no"?>
<!DOCTYPE svg PUBLIC "-//W3C//DTD SVG 1.1//EN"
 "http://www.w3.org/Graphics/SVG/1.1/DTD/svg11.dtd">
<!-- Generated by graphviz version 2.26.3 (20100126.1600)
 -->
<!-- Title: models_diagram Pages: 1 -->
<svg width="1142pt" height="250pt"
 viewBox="0.00 0.00 1142.00 250.00" xmlns="http://www.w3.org/2000/svg" xmlns:xlink="http://www.w3.org/1999/xlink">
<g id="graph1" class="graph" transform="scale(1 1) rotate(0) translate(4 246)">
<title>models_diagram</title>
<polygon fill="white" stroke="white" points="-4,5 -4,-246 1139,-246 1139,5 -4,5"/>
<!-- _diagram_info -->
<g id="node1" class="node"><title>_diagram_info</title>
<text text-anchor="start" x="8" y="-225.8" font-family="Times Roman,serif" font-size="13.00">Models diagram</text>
<text text-anchor="start" x="8" y="-208.8" font-family="Times Roman,serif" font-size="13.00">Date: Jul 25 2012 &#45; 20:53</text>
<text text-anchor="start" x="8" y="-191.8" font-family="Times Roman,serif" font-size="13.00">Migration version: 20120725203703</text>
<text text-anchor="start" x="8" y="-174.8" font-family="Times Roman,serif" font-size="13.00">Generated by RailRoady 1.0.8</text>
<text text-anchor="start" x="8" y="-157.8" font-family="Times Roman,serif" font-size="13.00">http://railroady.prestonlee.com</text>
</g>
<!-- AdminUser -->
<g id="node2" class="node"><title>AdminUser</title>
<ellipse fill="none" stroke="black" cx="333" cy="-195" rx="65.0538" ry="18.3848"/>
<text text-anchor="middle" x="333" y="-191.4" font-family="Times Roman,serif" font-size="14.00">AdminUser</text>
</g>
<!-- Tip -->
<g id="node3" class="node"><title>Tip</title>
<ellipse fill="none" stroke="black" cx="443" cy="-195" rx="27" ry="18.3848"/>
<text text-anchor="middle" x="443" y="-191.4" font-family="Times Roman,serif" font-size="14.00">Tip</text>
</g>
<!-- Authentication -->
<g id="node4" class="node"><title>Authentication</title>
<ellipse fill="none" stroke="black" cx="179" cy="-93" rx="84.1457" ry="18.3848"/>
<text text-anchor="middle" x="179" y="-89.4" font-family="Times Roman,serif" font-size="14.00">Authentication</text>
</g>
<!-- Message -->
<g id="node5" class="node"><title>Message</title>
<ellipse fill="none" stroke="black" cx="334" cy="-93" rx="53.033" ry="18.3848"/>
<text text-anchor="middle" x="334" y="-89.4" font-family="Times Roman,serif" font-size="14.00">Message</text>
</g>
<!-- User -->
<g id="node6" class="node"><title>User</title>
<ellipse fill="none" stroke="black" cx="522" cy="-195" rx="33.9411" ry="18.3848"/>
<text text-anchor="middle" x="522" y="-191.4" font-family="Times Roman,serif" font-size="14.00">User</text>
</g>
<!-- User&#45;&gt;Authentication -->
<g id="edge2" class="edge"><title>User&#45;&gt;Authentication</title>
<path fill="none" stroke="#fe9e73" d="M505.437,-171.102C498.282,-162.518 489.203,-153.587 479,-148 397.095,-103.149 363.755,-129.348 272,-112 264.794,-110.638 257.284,-109.175 249.792,-107.688"/>
<ellipse fill="none" stroke="#fe9e73" cx="508.04" cy="-174.398" rx="4.00002" ry="4.00002"/>
<polygon fill="#fe9e73" stroke="#fe9e73" points="249.787,-107.687 240.864,-101.312 244.884,-106.706 239.981,-105.725 239.981,-105.725 239.981,-105.725 244.884,-106.706 239.098,-110.137 249.787,-107.687 249.787,-107.687"/>
</g>
<!-- User&#45;&gt;Message -->
<g id="edge6" class="edge"><title>User&#45;&gt;Message</title>
<path fill="none" stroke="#88aece" d="M503.753,-170.83C496.715,-162.74 488.152,-154.21 479,-148 462.81,-137.015 418.269,-120.776 382.785,-108.789"/>
<ellipse fill="none" stroke="#88aece" cx="506.723" cy="-174.39" rx="4.00002" ry="4.00002"/>
<polygon fill="#88aece" stroke="#88aece" points="382.531,-108.704 374.477,-101.262 377.79,-107.116 373.048,-105.529 373.048,-105.529 373.048,-105.529 377.79,-107.116 371.62,-109.796 382.531,-108.704 382.531,-108.704"/>
</g>
<!-- Follower -->
<g id="node8" class="node"><title>Follower</title>
<ellipse fill="none" stroke="black" cx="458" cy="-93" rx="53.033" ry="18.3848"/>
<text text-anchor="middle" x="458" y="-89.4" font-family="Times Roman,serif" font-size="14.00">Follower</text>
</g>
<!-- User&#45;&gt;Follower -->
<g id="edge4" class="edge"><title>User&#45;&gt;Follower</title>
<path fill="none" stroke="#7452b2" d="M506.526,-170.339C496.973,-155.113 484.711,-135.57 474.903,-119.939"/>
<ellipse fill="none" stroke="#7452b2" cx="508.726" cy="-173.845" rx="4.00002" ry="4.00002"/>
<polygon fill="#7452b2" stroke="#7452b2" points="474.766,-119.721 473.263,-108.859 472.109,-115.486 469.451,-111.25 469.451,-111.25 469.451,-111.25 472.109,-115.486 465.639,-113.642 474.766,-119.721 474.766,-119.721"/>
</g>
<!-- Category -->
<g id="node9" class="node"><title>Category</title>
<ellipse fill="none" stroke="black" cx="585" cy="-93" rx="56.0679" ry="18.3848"/>
<text text-anchor="middle" x="585" y="-89.4" font-family="Times Roman,serif" font-size="14.00">Category</text>
</g>
<!-- User&#45;&gt;Category -->
<g id="edge8" class="edge"><title>User&#45;&gt;Category</title>
<path fill="none" stroke="#63bc54" d="M537.232,-170.339C546.636,-155.113 558.707,-135.57 568.361,-119.939"/>
<ellipse fill="none" stroke="#63bc54" cx="535.076" cy="-173.83" rx="4.00002" ry="4.00002"/>
<polygon fill="#63bc54" stroke="#63bc54" points="568.473,-119.758 577.556,-113.615 571.1,-115.504 573.728,-111.25 573.728,-111.25 573.728,-111.25 571.1,-115.504 569.899,-108.886 568.473,-119.758 568.473,-119.758"/>
</g>
<!-- Product -->
<g id="node11" class="node"><title>Product</title>
<ellipse fill="none" stroke="black" cx="708" cy="-93" rx="48.9975" ry="18.3848"/>
<text text-anchor="middle" x="708" y="-89.4" font-family="Times Roman,serif" font-size="14.00">Product</text>
</g>
<!-- User&#45;&gt;Product -->
<g id="edge12" class="edge"><title>User&#45;&gt;Product</title>
<path fill="none" stroke="#d36c1a" d="M540.263,-170.853C547.303,-162.766 555.863,-154.231 565,-148 581.17,-136.973 626.006,-120.448 661.206,-108.391"/>
<ellipse fill="none" stroke="#d36c1a" cx="537.292" cy="-174.411" rx="4.00002" ry="4.00002"/>
<polygon fill="#d36c1a" stroke="#d36c1a" points="661.377,-108.333 672.293,-109.378 666.112,-106.725 670.846,-105.117 670.846,-105.117 670.846,-105.117 666.112,-106.725 669.399,-100.856 661.377,-108.333 661.377,-108.333"/>
</g>
<!-- Stage -->
<g id="node13" class="node"><title>Stage</title>
<ellipse fill="none" stroke="black" cx="814" cy="-93" rx="39.0967" ry="18.3848"/>
<text text-anchor="middle" x="814" y="-89.4" font-family="Times Roman,serif" font-size="14.00">Stage</text>
</g>
<!-- User&#45;&gt;Stage -->
<g id="edge10" class="edge"><title>User&#45;&gt;Stage</title>
<path fill="none" stroke="#e5ab41" d="M538.578,-171.128C545.735,-162.549 554.811,-153.613 565,-148 644.491,-104.21 678.706,-136.825 766,-112 769.147,-111.105 772.372,-110.079 775.589,-108.978"/>
<ellipse fill="none" stroke="#e5ab41" cx="535.974" cy="-174.422" rx="4.00002" ry="4.00002"/>
<polygon fill="#e5ab41" stroke="#e5ab41" points="775.734,-108.925 786.671,-109.731 780.432,-107.214 785.131,-105.503 785.131,-105.503 785.131,-105.503 780.432,-107.214 783.591,-101.274 775.734,-108.925 775.734,-108.925"/>
</g>
<!-- SubCategory -->
<g id="node7" class="node"><title>SubCategory</title>
<ellipse fill="none" stroke="black" cx="585" cy="-19" rx="74.9533" ry="18.3848"/>
<text text-anchor="middle" x="585" y="-15.4" font-family="Times Roman,serif" font-size="14.00">SubCategory</text>
</g>
<!-- Category&#45;&gt;SubCategory -->
<g id="edge14" class="edge"><title>Category&#45;&gt;SubCategory</title>
<path fill="none" stroke="#8b4c1d" d="M585,-66.309C585,-60.3769 585,-54.0606 585,-48.0396"/>
<ellipse fill="none" stroke="#8b4c1d" cx="585" cy="-70.3267" rx="4" ry="4"/>
<polygon fill="#8b4c1d" stroke="#8b4c1d" points="585,-47.6674 589.5,-37.6673 585,-42.6674 585,-37.6674 585,-37.6674 585,-37.6674 585,-42.6674 580.5,-37.6674 585,-47.6674 585,-47.6674"/>
</g>
<!-- Activity -->
<g id="node10" class="node"><title>Activity</title>
<ellipse fill="none" stroke="black" cx="623" cy="-195" rx="48.7904" ry="18.3848"/>
<text text-anchor="middle" x="623" y="-191.4" font-family="Times Roman,serif" font-size="14.00">Activity</text>
</g>
<!-- Avatar -->
<g id="node12" class="node"><title>Avatar</title>
<ellipse fill="none" stroke="black" cx="734" cy="-195" rx="43.8406" ry="18.3848"/>
<text text-anchor="middle" x="734" y="-191.4" font-family="Times Roman,serif" font-size="14.00">Avatar</text>
</g>
<!-- AvatarPart -->
<g id="node14" class="node"><title>AvatarPart</title>
<ellipse fill="none" stroke="black" cx="860" cy="-195" rx="63.8479" ry="18.3848"/>
<text text-anchor="middle" x="860" y="-191.4" font-family="Times Roman,serif" font-size="14.00">AvatarPart</text>
</g>
<!-- Section -->
<g id="node15" class="node"><title>Section</title>
<ellipse fill="none" stroke="black" cx="990" cy="-195" rx="48.0833" ry="18.3848"/>
<text text-anchor="middle" x="990" y="-191.4" font-family="Times Roman,serif" font-size="14.00">Section</text>
</g>
<!-- Token -->
<g id="node16" class="node"><title>Token</title>
<ellipse fill="none" stroke="black" cx="1095" cy="-195" rx="39.0967" ry="18.3848"/>
<text text-anchor="middle" x="1095" y="-191.4" font-family="Times Roman,serif" font-size="14.00">Token</text>
</g>
</g>
</svg>
