<?xml version="1.0" encoding="UTF-8" standalone="no"?>
<!DOCTYPE svg PUBLIC "-//W3C//DTD SVG 1.1//EN"
 "http://www.w3.org/Graphics/SVG/1.1/DTD/svg11.dtd">
<!-- Generated by graphviz version 2.26.3 (20100126.1600)
 -->
<!-- Title: models_diagram Pages: 1 -->
<svg width="1968pt" height="836pt"
 viewBox="0.00 0.00 1968.00 836.00" xmlns="http://www.w3.org/2000/svg" xmlns:xlink="http://www.w3.org/1999/xlink">
<g id="graph1" class="graph" transform="scale(1 1) rotate(0) translate(4 832)">
<title>models_diagram</title>
<polygon fill="white" stroke="white" points="-4,5 -4,-832 1965,-832 1965,5 -4,5"/>
<!-- _diagram_info -->
<g id="node1" class="node"><title>_diagram_info</title>
<text text-anchor="start" x="8" y="-678.8" font-family="Times Roman,serif" font-size="13.00">Models diagram</text>
<text text-anchor="start" x="8" y="-661.8" font-family="Times Roman,serif" font-size="13.00">Date: Jul 25 2012 &#45; 20:53</text>
<text text-anchor="start" x="8" y="-644.8" font-family="Times Roman,serif" font-size="13.00">Migration version: 20120725203703</text>
<text text-anchor="start" x="8" y="-627.8" font-family="Times Roman,serif" font-size="13.00">Generated by RailRoady 1.0.8</text>
<text text-anchor="start" x="8" y="-610.8" font-family="Times Roman,serif" font-size="13.00">http://railroady.prestonlee.com</text>
</g>
<!-- AdminUser -->
<g id="node2" class="node"><title>AdminUser</title>
<polyline fill="none" stroke="black" points="280,-514 510,-514 "/>
<path fill="none" stroke="black" d="M510,-514C516,-514 522,-520 522,-526"/>
<polyline fill="none" stroke="black" points="522,-526 522,-770 "/>
<path fill="none" stroke="black" d="M522,-770C522,-776 516,-782 510,-782"/>
<polyline fill="none" stroke="black" points="510,-782 280,-782 "/>
<path fill="none" stroke="black" d="M280,-782C274,-782 268,-776 268,-770"/>
<polyline fill="none" stroke="black" points="268,-770 268,-526 "/>
<path fill="none" stroke="black" d="M268,-526C268,-520 274,-514 280,-514"/>
<text text-anchor="middle" x="395" y="-765.4" font-family="Times Roman,serif" font-size="14.00">AdminUser</text>
<polyline fill="none" stroke="black" points="268,-756 522,-756 "/>
<text text-anchor="start" x="276" y="-739.4" font-family="Times Roman,serif" font-size="14.00">id :integer</text>
<text text-anchor="start" x="276" y="-721.4" font-family="Times Roman,serif" font-size="14.00">email :string</text>
<text text-anchor="start" x="276" y="-703.4" font-family="Times Roman,serif" font-size="14.00">encrypted_password :string</text>
<text text-anchor="start" x="276" y="-685.4" font-family="Times Roman,serif" font-size="14.00">reset_password_token :string</text>
<text text-anchor="start" x="276" y="-667.4" font-family="Times Roman,serif" font-size="14.00">reset_password_sent_at :datetime</text>
<text text-anchor="start" x="276" y="-649.4" font-family="Times Roman,serif" font-size="14.00">remember_created_at :datetime</text>
<text text-anchor="start" x="276" y="-631.4" font-family="Times Roman,serif" font-size="14.00">sign_in_count :integer</text>
<text text-anchor="start" x="276" y="-613.4" font-family="Times Roman,serif" font-size="14.00">current_sign_in_at :datetime</text>
<text text-anchor="start" x="276" y="-595.4" font-family="Times Roman,serif" font-size="14.00">last_sign_in_at :datetime</text>
<text text-anchor="start" x="276" y="-577.4" font-family="Times Roman,serif" font-size="14.00">current_sign_in_ip :string</text>
<text text-anchor="start" x="276" y="-559.4" font-family="Times Roman,serif" font-size="14.00">last_sign_in_ip :string</text>
<text text-anchor="start" x="276" y="-541.4" font-family="Times Roman,serif" font-size="14.00">created_at :datetime</text>
<text text-anchor="start" x="276" y="-523.4" font-family="Times Roman,serif" font-size="14.00">updated_at :datetime</text>
</g>
<!-- Tip -->
<g id="node3" class="node"><title>Tip</title>
<polyline fill="none" stroke="black" points="551.5,-577 692.5,-577 "/>
<path fill="none" stroke="black" d="M692.5,-577C698.5,-577 704.5,-583 704.5,-589"/>
<polyline fill="none" stroke="black" points="704.5,-589 704.5,-707 "/>
<path fill="none" stroke="black" d="M704.5,-707C704.5,-713 698.5,-719 692.5,-719"/>
<polyline fill="none" stroke="black" points="692.5,-719 551.5,-719 "/>
<path fill="none" stroke="black" d="M551.5,-719C545.5,-719 539.5,-713 539.5,-707"/>
<polyline fill="none" stroke="black" points="539.5,-707 539.5,-589 "/>
<path fill="none" stroke="black" d="M539.5,-589C539.5,-583 545.5,-577 551.5,-577"/>
<text text-anchor="middle" x="622" y="-702.4" font-family="Times Roman,serif" font-size="14.00">Tip</text>
<polyline fill="none" stroke="black" points="539.5,-693 704.5,-693 "/>
<text text-anchor="start" x="547.5" y="-676.4" font-family="Times Roman,serif" font-size="14.00">id :integer</text>
<text text-anchor="start" x="547.5" y="-658.4" font-family="Times Roman,serif" font-size="14.00">sender :integer</text>
<text text-anchor="start" x="547.5" y="-640.4" font-family="Times Roman,serif" font-size="14.00">receiver :integer</text>
<text text-anchor="start" x="547.5" y="-622.4" font-family="Times Roman,serif" font-size="14.00">tokens :integer</text>
<text text-anchor="start" x="547.5" y="-604.4" font-family="Times Roman,serif" font-size="14.00">created_at :datetime</text>
<text text-anchor="start" x="547.5" y="-586.4" font-family="Times Roman,serif" font-size="14.00">updated_at :datetime</text>
</g>
<!-- Authentication -->
<g id="node4" class="node"><title>Authentication</title>
<polyline fill="none" stroke="black" points="323.5,-244 464.5,-244 "/>
<path fill="none" stroke="black" d="M464.5,-244C470.5,-244 476.5,-250 476.5,-256"/>
<polyline fill="none" stroke="black" points="476.5,-256 476.5,-374 "/>
<path fill="none" stroke="black" d="M476.5,-374C476.5,-380 470.5,-386 464.5,-386"/>
<polyline fill="none" stroke="black" points="464.5,-386 323.5,-386 "/>
<path fill="none" stroke="black" d="M323.5,-386C317.5,-386 311.5,-380 311.5,-374"/>
<polyline fill="none" stroke="black" points="311.5,-374 311.5,-256 "/>
<path fill="none" stroke="black" d="M311.5,-256C311.5,-250 317.5,-244 323.5,-244"/>
<text text-anchor="middle" x="394" y="-369.4" font-family="Times Roman,serif" font-size="14.00">Authentication</text>
<polyline fill="none" stroke="black" points="311.5,-360 476.5,-360 "/>
<text text-anchor="start" x="319.5" y="-343.4" font-family="Times Roman,serif" font-size="14.00">id :integer</text>
<text text-anchor="start" x="319.5" y="-325.4" font-family="Times Roman,serif" font-size="14.00">user_id :integer</text>
<text text-anchor="start" x="319.5" y="-307.4" font-family="Times Roman,serif" font-size="14.00">provider :string</text>
<text text-anchor="start" x="319.5" y="-289.4" font-family="Times Roman,serif" font-size="14.00">uid :string</text>
<text text-anchor="start" x="319.5" y="-271.4" font-family="Times Roman,serif" font-size="14.00">created_at :datetime</text>
<text text-anchor="start" x="319.5" y="-253.4" font-family="Times Roman,serif" font-size="14.00">updated_at :datetime</text>
</g>
<!-- Message -->
<g id="node5" class="node"><title>Message</title>
<polyline fill="none" stroke="black" points="505.5,-244 646.5,-244 "/>
<path fill="none" stroke="black" d="M646.5,-244C652.5,-244 658.5,-250 658.5,-256"/>
<polyline fill="none" stroke="black" points="658.5,-256 658.5,-374 "/>
<path fill="none" stroke="black" d="M658.5,-374C658.5,-380 652.5,-386 646.5,-386"/>
<polyline fill="none" stroke="black" points="646.5,-386 505.5,-386 "/>
<path fill="none" stroke="black" d="M505.5,-386C499.5,-386 493.5,-380 493.5,-374"/>
<polyline fill="none" stroke="black" points="493.5,-374 493.5,-256 "/>
<path fill="none" stroke="black" d="M493.5,-256C493.5,-250 499.5,-244 505.5,-244"/>
<text text-anchor="middle" x="576" y="-369.4" font-family="Times Roman,serif" font-size="14.00">Message</text>
<polyline fill="none" stroke="black" points="493.5,-360 658.5,-360 "/>
<text text-anchor="start" x="501.5" y="-343.4" font-family="Times Roman,serif" font-size="14.00">id :integer</text>
<text text-anchor="start" x="501.5" y="-325.4" font-family="Times Roman,serif" font-size="14.00">body :text</text>
<text text-anchor="start" x="501.5" y="-307.4" font-family="Times Roman,serif" font-size="14.00">sender :integer</text>
<text text-anchor="start" x="501.5" y="-289.4" font-family="Times Roman,serif" font-size="14.00">recipient :string</text>
<text text-anchor="start" x="501.5" y="-271.4" font-family="Times Roman,serif" font-size="14.00">created_at :datetime</text>
<text text-anchor="start" x="501.5" y="-253.4" font-family="Times Roman,serif" font-size="14.00">updated_at :datetime</text>
</g>
<!-- User -->
<g id="node6" class="node"><title>User</title>
<polyline fill="none" stroke="black" points="734,-487 964,-487 "/>
<path fill="none" stroke="black" d="M964,-487C970,-487 976,-493 976,-499"/>
<polyline fill="none" stroke="black" points="976,-499 976,-797 "/>
<path fill="none" stroke="black" d="M976,-797C976,-803 970,-809 964,-809"/>
<polyline fill="none" stroke="black" points="964,-809 734,-809 "/>
<path fill="none" stroke="black" d="M734,-809C728,-809 722,-803 722,-797"/>
<polyline fill="none" stroke="black" points="722,-797 722,-499 "/>
<path fill="none" stroke="black" d="M722,-499C722,-493 728,-487 734,-487"/>
<text text-anchor="middle" x="849" y="-792.4" font-family="Times Roman,serif" font-size="14.00">User</text>
<polyline fill="none" stroke="black" points="722,-783 976,-783 "/>
<text text-anchor="start" x="730" y="-766.4" font-family="Times Roman,serif" font-size="14.00">id :integer</text>
<text text-anchor="start" x="730" y="-748.4" font-family="Times Roman,serif" font-size="14.00">email :string</text>
<text text-anchor="start" x="730" y="-730.4" font-family="Times Roman,serif" font-size="14.00">encrypted_password :string</text>
<text text-anchor="start" x="730" y="-712.4" font-family="Times Roman,serif" font-size="14.00">reset_password_token :string</text>
<text text-anchor="start" x="730" y="-694.4" font-family="Times Roman,serif" font-size="14.00">reset_password_sent_at :datetime</text>
<text text-anchor="start" x="730" y="-676.4" font-family="Times Roman,serif" font-size="14.00">remember_created_at :datetime</text>
<text text-anchor="start" x="730" y="-658.4" font-family="Times Roman,serif" font-size="14.00">sign_in_count :integer</text>
<text text-anchor="start" x="730" y="-640.4" font-family="Times Roman,serif" font-size="14.00">current_sign_in_at :datetime</text>
<text text-anchor="start" x="730" y="-622.4" font-family="Times Roman,serif" font-size="14.00">last_sign_in_at :datetime</text>
<text text-anchor="start" x="730" y="-604.4" font-family="Times Roman,serif" font-size="14.00">current_sign_in_ip :string</text>
<text text-anchor="start" x="730" y="-586.4" font-family="Times Roman,serif" font-size="14.00">last_sign_in_ip :string</text>
<text text-anchor="start" x="730" y="-568.4" font-family="Times Roman,serif" font-size="14.00">created_at :datetime</text>
<text text-anchor="start" x="730" y="-550.4" font-family="Times Roman,serif" font-size="14.00">updated_at :datetime</text>
<text text-anchor="start" x="730" y="-532.4" font-family="Times Roman,serif" font-size="14.00">image :string</text>
<text text-anchor="start" x="730" y="-514.4" font-family="Times Roman,serif" font-size="14.00">about :text</text>
<text text-anchor="start" x="730" y="-496.4" font-family="Times Roman,serif" font-size="14.00">name :string</text>
</g>
<!-- User&#45;&gt;Authentication -->
<g id="edge2" class="edge"><title>User&#45;&gt;Authentication</title>
<path fill="none" stroke="#a022d2" d="M732.724,-481.578C726.379,-476.639 719.802,-472.079 713,-468 625.018,-415.24 573.349,-484.143 485,-432 468.826,-422.454 454.477,-408.841 442.229,-394.257"/>
<ellipse fill="none" stroke="#a022d2" cx="735.879" cy="-484.127" rx="4.00002" ry="4.00002"/>
<polygon fill="#a022d2" stroke="#a022d2" points="441.912,-393.864 439.147,-383.252 438.777,-389.969 435.641,-386.074 435.641,-386.074 435.641,-386.074 438.777,-389.969 432.136,-388.896 441.912,-393.864 441.912,-393.864"/>
</g>
<!-- User&#45;&gt;Message -->
<g id="edge6" class="edge"><title>User&#45;&gt;Message</title>
<path fill="none" stroke="#528ed6" d="M725.119,-480.727C721.102,-476.38 717.059,-472.128 713,-468 694.799,-449.487 685.33,-450.385 667,-432 655.415,-420.38 643.955,-407.289 633.277,-394.182"/>
<ellipse fill="none" stroke="#528ed6" cx="727.882" cy="-483.756" rx="4.00002" ry="4.00002"/>
<polygon fill="#528ed6" stroke="#528ed6" points="632.995,-393.83 630.244,-383.215 629.865,-389.931 626.735,-386.032 626.735,-386.032 626.735,-386.032 629.865,-389.931 623.226,-388.848 632.995,-393.83 632.995,-393.83"/>
</g>
<!-- Follower -->
<g id="node8" class="node"><title>Follower</title>
<polyline fill="none" stroke="black" points="687.5,-253 828.5,-253 "/>
<path fill="none" stroke="black" d="M828.5,-253C834.5,-253 840.5,-259 840.5,-265"/>
<polyline fill="none" stroke="black" points="840.5,-265 840.5,-365 "/>
<path fill="none" stroke="black" d="M840.5,-365C840.5,-371 834.5,-377 828.5,-377"/>
<polyline fill="none" stroke="black" points="828.5,-377 687.5,-377 "/>
<path fill="none" stroke="black" d="M687.5,-377C681.5,-377 675.5,-371 675.5,-365"/>
<polyline fill="none" stroke="black" points="675.5,-365 675.5,-265 "/>
<path fill="none" stroke="black" d="M675.5,-265C675.5,-259 681.5,-253 687.5,-253"/>
<text text-anchor="middle" x="758" y="-360.4" font-family="Times Roman,serif" font-size="14.00">Follower</text>
<polyline fill="none" stroke="black" points="675.5,-351 840.5,-351 "/>
<text text-anchor="start" x="683.5" y="-334.4" font-family="Times Roman,serif" font-size="14.00">id :integer</text>
<text text-anchor="start" x="683.5" y="-316.4" font-family="Times Roman,serif" font-size="14.00">leader :string</text>
<text text-anchor="start" x="683.5" y="-298.4" font-family="Times Roman,serif" font-size="14.00">user_id :integer</text>
<text text-anchor="start" x="683.5" y="-280.4" font-family="Times Roman,serif" font-size="14.00">created_at :datetime</text>
<text text-anchor="start" x="683.5" y="-262.4" font-family="Times Roman,serif" font-size="14.00">updated_at :datetime</text>
</g>
<!-- User&#45;&gt;Follower -->
<g id="edge4" class="edge"><title>User&#45;&gt;Follower</title>
<path fill="none" stroke="#712490" d="M802.841,-479.09C793.973,-446.639 785.139,-414.31 777.685,-387.036"/>
<ellipse fill="none" stroke="#712490" cx="803.912" cy="-483.006" rx="4.00001" ry="4.00001"/>
<polygon fill="#712490" stroke="#712490" points="777.641,-386.871 779.345,-376.039 776.323,-382.048 775.004,-377.225 775.004,-377.225 775.004,-377.225 776.323,-382.048 770.664,-378.411 777.641,-386.871 777.641,-386.871"/>
</g>
<!-- Category -->
<g id="node9" class="node"><title>Category</title>
<polyline fill="none" stroke="black" points="869.5,-253 1010.5,-253 "/>
<path fill="none" stroke="black" d="M1010.5,-253C1016.5,-253 1022.5,-259 1022.5,-265"/>
<polyline fill="none" stroke="black" points="1022.5,-265 1022.5,-365 "/>
<path fill="none" stroke="black" d="M1022.5,-365C1022.5,-371 1016.5,-377 1010.5,-377"/>
<polyline fill="none" stroke="black" points="1010.5,-377 869.5,-377 "/>
<path fill="none" stroke="black" d="M869.5,-377C863.5,-377 857.5,-371 857.5,-365"/>
<polyline fill="none" stroke="black" points="857.5,-365 857.5,-265 "/>
<path fill="none" stroke="black" d="M857.5,-265C857.5,-259 863.5,-253 869.5,-253"/>
<text text-anchor="middle" x="940" y="-360.4" font-family="Times Roman,serif" font-size="14.00">Category</text>
<polyline fill="none" stroke="black" points="857.5,-351 1022.5,-351 "/>
<text text-anchor="start" x="865.5" y="-334.4" font-family="Times Roman,serif" font-size="14.00">id :integer</text>
<text text-anchor="start" x="865.5" y="-316.4" font-family="Times Roman,serif" font-size="14.00">name :string</text>
<text text-anchor="start" x="865.5" y="-298.4" font-family="Times Roman,serif" font-size="14.00">state :boolean</text>
<text text-anchor="start" x="865.5" y="-280.4" font-family="Times Roman,serif" font-size="14.00">created_at :datetime</text>
<text text-anchor="start" x="865.5" y="-262.4" font-family="Times Roman,serif" font-size="14.00">updated_at :datetime</text>
</g>
<!-- User&#45;&gt;Category -->
<g id="edge8" class="edge"><title>User&#45;&gt;Category</title>
<path fill="none" stroke="#363e4c" d="M895.159,-479.09C904.027,-446.639 912.861,-414.31 920.315,-387.036"/>
<ellipse fill="none" stroke="#363e4c" cx="894.088" cy="-483.006" rx="4.00001" ry="4.00001"/>
<polygon fill="#363e4c" stroke="#363e4c" points="920.359,-386.871 927.336,-378.411 921.677,-382.048 922.996,-377.225 922.996,-377.225 922.996,-377.225 921.677,-382.048 918.655,-376.039 920.359,-386.871 920.359,-386.871"/>
</g>
<!-- Product -->
<g id="node11" class="node"><title>Product</title>
<polyline fill="none" stroke="black" points="1051.5,-235 1192.5,-235 "/>
<path fill="none" stroke="black" d="M1192.5,-235C1198.5,-235 1204.5,-241 1204.5,-247"/>
<polyline fill="none" stroke="black" points="1204.5,-247 1204.5,-383 "/>
<path fill="none" stroke="black" d="M1204.5,-383C1204.5,-389 1198.5,-395 1192.5,-395"/>
<polyline fill="none" stroke="black" points="1192.5,-395 1051.5,-395 "/>
<path fill="none" stroke="black" d="M1051.5,-395C1045.5,-395 1039.5,-389 1039.5,-383"/>
<polyline fill="none" stroke="black" points="1039.5,-383 1039.5,-247 "/>
<path fill="none" stroke="black" d="M1039.5,-247C1039.5,-241 1045.5,-235 1051.5,-235"/>
<text text-anchor="middle" x="1122" y="-378.4" font-family="Times Roman,serif" font-size="14.00">Product</text>
<polyline fill="none" stroke="black" points="1039.5,-369 1204.5,-369 "/>
<text text-anchor="start" x="1047.5" y="-352.4" font-family="Times Roman,serif" font-size="14.00">id :integer</text>
<text text-anchor="start" x="1047.5" y="-334.4" font-family="Times Roman,serif" font-size="14.00">name :string</text>
<text text-anchor="start" x="1047.5" y="-316.4" font-family="Times Roman,serif" font-size="14.00">price :integer</text>
<text text-anchor="start" x="1047.5" y="-298.4" font-family="Times Roman,serif" font-size="14.00">user_id :integer</text>
<text text-anchor="start" x="1047.5" y="-280.4" font-family="Times Roman,serif" font-size="14.00">description :text</text>
<text text-anchor="start" x="1047.5" y="-262.4" font-family="Times Roman,serif" font-size="14.00">created_at :datetime</text>
<text text-anchor="start" x="1047.5" y="-244.4" font-family="Times Roman,serif" font-size="14.00">updated_at :datetime</text>
</g>
<!-- User&#45;&gt;Product -->
<g id="edge12" class="edge"><title>User&#45;&gt;Product</title>
<path fill="none" stroke="#520abc" d="M972.881,-480.727C976.898,-476.38 980.941,-472.128 985,-468 1003.2,-449.487 1012.67,-450.385 1031,-432 1039.98,-422.997 1048.88,-413.11 1057.4,-403.018"/>
<ellipse fill="none" stroke="#520abc" cx="970.118" cy="-483.756" rx="4.00002" ry="4.00002"/>
<polygon fill="#520abc" stroke="#520abc" points="1057.44,-402.962 1067.3,-398.146 1060.64,-399.117 1063.83,-395.271 1063.83,-395.271 1063.83,-395.271 1060.64,-399.117 1060.37,-392.395 1057.44,-402.962 1057.44,-402.962"/>
</g>
<!-- Stage -->
<g id="node13" class="node"><title>Stage</title>
<polyline fill="none" stroke="black" points="1233.5,-199 1398.5,-199 "/>
<path fill="none" stroke="black" d="M1398.5,-199C1404.5,-199 1410.5,-205 1410.5,-211"/>
<polyline fill="none" stroke="black" points="1410.5,-211 1410.5,-419 "/>
<path fill="none" stroke="black" d="M1410.5,-419C1410.5,-425 1404.5,-431 1398.5,-431"/>
<polyline fill="none" stroke="black" points="1398.5,-431 1233.5,-431 "/>
<path fill="none" stroke="black" d="M1233.5,-431C1227.5,-431 1221.5,-425 1221.5,-419"/>
<polyline fill="none" stroke="black" points="1221.5,-419 1221.5,-211 "/>
<path fill="none" stroke="black" d="M1221.5,-211C1221.5,-205 1227.5,-199 1233.5,-199"/>
<text text-anchor="middle" x="1316" y="-414.4" font-family="Times Roman,serif" font-size="14.00">Stage</text>
<polyline fill="none" stroke="black" points="1221.5,-405 1410.5,-405 "/>
<text text-anchor="start" x="1229.5" y="-388.4" font-family="Times Roman,serif" font-size="14.00">id :integer</text>
<text text-anchor="start" x="1229.5" y="-370.4" font-family="Times Roman,serif" font-size="14.00">type :string</text>
<text text-anchor="start" x="1229.5" y="-352.4" font-family="Times Roman,serif" font-size="14.00">category_id :integer</text>
<text text-anchor="start" x="1229.5" y="-334.4" font-family="Times Roman,serif" font-size="14.00">sub_category_id :integer</text>
<text text-anchor="start" x="1229.5" y="-316.4" font-family="Times Roman,serif" font-size="14.00">room_name :string</text>
<text text-anchor="start" x="1229.5" y="-298.4" font-family="Times Roman,serif" font-size="14.00">language_content :string</text>
<text text-anchor="start" x="1229.5" y="-280.4" font-family="Times Roman,serif" font-size="14.00">rate :string</text>
<text text-anchor="start" x="1229.5" y="-262.4" font-family="Times Roman,serif" font-size="14.00">status :string</text>
<text text-anchor="start" x="1229.5" y="-244.4" font-family="Times Roman,serif" font-size="14.00">created_at :datetime</text>
<text text-anchor="start" x="1229.5" y="-226.4" font-family="Times Roman,serif" font-size="14.00">updated_at :datetime</text>
<text text-anchor="start" x="1229.5" y="-208.4" font-family="Times Roman,serif" font-size="14.00">user_id :integer</text>
</g>
<!-- User&#45;&gt;Stage -->
<g id="edge10" class="edge"><title>User&#45;&gt;Stage</title>
<path fill="none" stroke="#86e739" d="M965.276,-481.578C971.621,-476.639 978.198,-472.079 985,-468 1070.23,-416.889 1119.94,-477.412 1212.34,-431.746"/>
<ellipse fill="none" stroke="#86e739" cx="962.121" cy="-484.127" rx="4.00002" ry="4.00002"/>
<polygon fill="#86e739" stroke="#86e739" points="1212.56,-431.631 1223.5,-430.974 1216.98,-429.309 1221.41,-426.988 1221.41,-426.988 1221.41,-426.988 1216.98,-429.309 1219.32,-423.003 1212.56,-431.631 1212.56,-431.631"/>
</g>
<!-- SubCategory -->
<g id="node7" class="node"><title>SubCategory</title>
<polyline fill="none" stroke="black" points="869.5,-1 1010.5,-1 "/>
<path fill="none" stroke="black" d="M1010.5,-1C1016.5,-1 1022.5,-7 1022.5,-13"/>
<polyline fill="none" stroke="black" points="1022.5,-13 1022.5,-149 "/>
<path fill="none" stroke="black" d="M1022.5,-149C1022.5,-155 1016.5,-161 1010.5,-161"/>
<polyline fill="none" stroke="black" points="1010.5,-161 869.5,-161 "/>
<path fill="none" stroke="black" d="M869.5,-161C863.5,-161 857.5,-155 857.5,-149"/>
<polyline fill="none" stroke="black" points="857.5,-149 857.5,-13 "/>
<path fill="none" stroke="black" d="M857.5,-13C857.5,-7 863.5,-1 869.5,-1"/>
<text text-anchor="middle" x="940" y="-144.4" font-family="Times Roman,serif" font-size="14.00">SubCategory</text>
<polyline fill="none" stroke="black" points="857.5,-135 1022.5,-135 "/>
<text text-anchor="start" x="865.5" y="-118.4" font-family="Times Roman,serif" font-size="14.00">id :integer</text>
<text text-anchor="start" x="865.5" y="-100.4" font-family="Times Roman,serif" font-size="14.00">category_id :integer</text>
<text text-anchor="start" x="865.5" y="-82.4" font-family="Times Roman,serif" font-size="14.00">user_id :integer</text>
<text text-anchor="start" x="865.5" y="-64.4" font-family="Times Roman,serif" font-size="14.00">name :string</text>
<text text-anchor="start" x="865.5" y="-46.4" font-family="Times Roman,serif" font-size="14.00">state :boolean</text>
<text text-anchor="start" x="865.5" y="-28.4" font-family="Times Roman,serif" font-size="14.00">created_at :datetime</text>
<text text-anchor="start" x="865.5" y="-10.4" font-family="Times Roman,serif" font-size="14.00">updated_at :datetime</text>
</g>
<!-- Category&#45;&gt;SubCategory -->
<g id="edge14" class="edge"><title>Category&#45;&gt;SubCategory</title>
<path fill="none" stroke="#4adf94" d="M940,-244.849C940,-221.661 940,-195.532 940,-171.065"/>
<ellipse fill="none" stroke="#4adf94" cx="940" cy="-248.907" rx="4" ry="4"/>
<polygon fill="#4adf94" stroke="#4adf94" points="940,-171.059 944.5,-161.059 940,-166.059 940,-161.059 940,-161.059 940,-161.059 940,-166.059 935.5,-161.059 940,-171.059 940,-171.059"/>
</g>
<!-- Activity -->
<g id="node10" class="node"><title>Activity</title>
<polyline fill="none" stroke="black" points="1005.5,-559 1146.5,-559 "/>
<path fill="none" stroke="black" d="M1146.5,-559C1152.5,-559 1158.5,-565 1158.5,-571"/>
<polyline fill="none" stroke="black" points="1158.5,-571 1158.5,-725 "/>
<path fill="none" stroke="black" d="M1158.5,-725C1158.5,-731 1152.5,-737 1146.5,-737"/>
<polyline fill="none" stroke="black" points="1146.5,-737 1005.5,-737 "/>
<path fill="none" stroke="black" d="M1005.5,-737C999.5,-737 993.5,-731 993.5,-725"/>
<polyline fill="none" stroke="black" points="993.5,-725 993.5,-571 "/>
<path fill="none" stroke="black" d="M993.5,-571C993.5,-565 999.5,-559 1005.5,-559"/>
<text text-anchor="middle" x="1076" y="-720.4" font-family="Times Roman,serif" font-size="14.00">Activity</text>
<polyline fill="none" stroke="black" points="993.5,-711 1158.5,-711 "/>
<text text-anchor="start" x="1001.5" y="-694.4" font-family="Times Roman,serif" font-size="14.00">id :integer</text>
<text text-anchor="start" x="1001.5" y="-676.4" font-family="Times Roman,serif" font-size="14.00">description :text</text>
<text text-anchor="start" x="1001.5" y="-658.4" font-family="Times Roman,serif" font-size="14.00">type :string</text>
<text text-anchor="start" x="1001.5" y="-640.4" font-family="Times Roman,serif" font-size="14.00">event_id :integer</text>
<text text-anchor="start" x="1001.5" y="-622.4" font-family="Times Roman,serif" font-size="14.00">user_id :integer</text>
<text text-anchor="start" x="1001.5" y="-604.4" font-family="Times Roman,serif" font-size="14.00">artist :integer</text>
<text text-anchor="start" x="1001.5" y="-586.4" font-family="Times Roman,serif" font-size="14.00">created_at :datetime</text>
<text text-anchor="start" x="1001.5" y="-568.4" font-family="Times Roman,serif" font-size="14.00">updated_at :datetime</text>
</g>
<!-- Avatar -->
<g id="node12" class="node"><title>Avatar</title>
<polyline fill="none" stroke="black" points="1187.5,-586 1328.5,-586 "/>
<path fill="none" stroke="black" d="M1328.5,-586C1334.5,-586 1340.5,-592 1340.5,-598"/>
<polyline fill="none" stroke="black" points="1340.5,-598 1340.5,-698 "/>
<path fill="none" stroke="black" d="M1340.5,-698C1340.5,-704 1334.5,-710 1328.5,-710"/>
<polyline fill="none" stroke="black" points="1328.5,-710 1187.5,-710 "/>
<path fill="none" stroke="black" d="M1187.5,-710C1181.5,-710 1175.5,-704 1175.5,-698"/>
<polyline fill="none" stroke="black" points="1175.5,-698 1175.5,-598 "/>
<path fill="none" stroke="black" d="M1175.5,-598C1175.5,-592 1181.5,-586 1187.5,-586"/>
<text text-anchor="middle" x="1258" y="-693.4" font-family="Times Roman,serif" font-size="14.00">Avatar</text>
<polyline fill="none" stroke="black" points="1175.5,-684 1340.5,-684 "/>
<text text-anchor="start" x="1183.5" y="-667.4" font-family="Times Roman,serif" font-size="14.00">id :integer</text>
<text text-anchor="start" x="1183.5" y="-649.4" font-family="Times Roman,serif" font-size="14.00">user_id :integer</text>
<text text-anchor="start" x="1183.5" y="-631.4" font-family="Times Roman,serif" font-size="14.00">gender :string</text>
<text text-anchor="start" x="1183.5" y="-613.4" font-family="Times Roman,serif" font-size="14.00">created_at :datetime</text>
<text text-anchor="start" x="1183.5" y="-595.4" font-family="Times Roman,serif" font-size="14.00">updated_at :datetime</text>
</g>
<!-- AvatarPart -->
<g id="node14" class="node"><title>AvatarPart</title>
<polyline fill="none" stroke="black" points="1369.5,-586 1510.5,-586 "/>
<path fill="none" stroke="black" d="M1510.5,-586C1516.5,-586 1522.5,-592 1522.5,-598"/>
<polyline fill="none" stroke="black" points="1522.5,-598 1522.5,-698 "/>
<path fill="none" stroke="black" d="M1522.5,-698C1522.5,-704 1516.5,-710 1510.5,-710"/>
<polyline fill="none" stroke="black" points="1510.5,-710 1369.5,-710 "/>
<path fill="none" stroke="black" d="M1369.5,-710C1363.5,-710 1357.5,-704 1357.5,-698"/>
<polyline fill="none" stroke="black" points="1357.5,-698 1357.5,-598 "/>
<path fill="none" stroke="black" d="M1357.5,-598C1357.5,-592 1363.5,-586 1369.5,-586"/>
<text text-anchor="middle" x="1440" y="-693.4" font-family="Times Roman,serif" font-size="14.00">AvatarPart</text>
<polyline fill="none" stroke="black" points="1357.5,-684 1522.5,-684 "/>
<text text-anchor="start" x="1365.5" y="-667.4" font-family="Times Roman,serif" font-size="14.00">id :integer</text>
<text text-anchor="start" x="1365.5" y="-649.4" font-family="Times Roman,serif" font-size="14.00">avatar_id :integer</text>
<text text-anchor="start" x="1365.5" y="-631.4" font-family="Times Roman,serif" font-size="14.00">section_id :integer</text>
<text text-anchor="start" x="1365.5" y="-613.4" font-family="Times Roman,serif" font-size="14.00">created_at :datetime</text>
<text text-anchor="start" x="1365.5" y="-595.4" font-family="Times Roman,serif" font-size="14.00">updated_at :datetime</text>
</g>
<!-- Section -->
<g id="node15" class="node"><title>Section</title>
<polyline fill="none" stroke="black" points="1551.5,-469 1766.5,-469 "/>
<path fill="none" stroke="black" d="M1766.5,-469C1772.5,-469 1778.5,-475 1778.5,-481"/>
<polyline fill="none" stroke="black" points="1778.5,-481 1778.5,-815 "/>
<path fill="none" stroke="black" d="M1778.5,-815C1778.5,-821 1772.5,-827 1766.5,-827"/>
<polyline fill="none" stroke="black" points="1766.5,-827 1551.5,-827 "/>
<path fill="none" stroke="black" d="M1551.5,-827C1545.5,-827 1539.5,-821 1539.5,-815"/>
<polyline fill="none" stroke="black" points="1539.5,-815 1539.5,-481 "/>
<path fill="none" stroke="black" d="M1539.5,-481C1539.5,-475 1545.5,-469 1551.5,-469"/>
<text text-anchor="middle" x="1659" y="-810.4" font-family="Times Roman,serif" font-size="14.00">Section</text>
<polyline fill="none" stroke="black" points="1539.5,-801 1778.5,-801 "/>
<text text-anchor="start" x="1547.5" y="-784.4" font-family="Times Roman,serif" font-size="14.00">id :integer</text>
<text text-anchor="start" x="1547.5" y="-766.4" font-family="Times Roman,serif" font-size="14.00">name :string</text>
<text text-anchor="start" x="1547.5" y="-748.4" font-family="Times Roman,serif" font-size="14.00">parent :string</text>
<text text-anchor="start" x="1547.5" y="-730.4" font-family="Times Roman,serif" font-size="14.00">img_front :string</text>
<text text-anchor="start" x="1547.5" y="-712.4" font-family="Times Roman,serif" font-size="14.00">img_back :string</text>
<text text-anchor="start" x="1547.5" y="-694.4" font-family="Times Roman,serif" font-size="14.00">free :boolean</text>
<text text-anchor="start" x="1547.5" y="-676.4" font-family="Times Roman,serif" font-size="14.00">gender :string</text>
<text text-anchor="start" x="1547.5" y="-658.4" font-family="Times Roman,serif" font-size="14.00">group :string</text>
<text text-anchor="start" x="1547.5" y="-640.4" font-family="Times Roman,serif" font-size="14.00">created_at :datetime</text>
<text text-anchor="start" x="1547.5" y="-622.4" font-family="Times Roman,serif" font-size="14.00">updated_at :datetime</text>
<text text-anchor="start" x="1547.5" y="-604.4" font-family="Times Roman,serif" font-size="14.00">img_front_file_name :string</text>
<text text-anchor="start" x="1547.5" y="-586.4" font-family="Times Roman,serif" font-size="14.00">img_front_content_type :string</text>
<text text-anchor="start" x="1547.5" y="-568.4" font-family="Times Roman,serif" font-size="14.00">img_front_file_size :integer</text>
<text text-anchor="start" x="1547.5" y="-550.4" font-family="Times Roman,serif" font-size="14.00">img_front_updated_at :datetime</text>
<text text-anchor="start" x="1547.5" y="-532.4" font-family="Times Roman,serif" font-size="14.00">img_back_file_name :string</text>
<text text-anchor="start" x="1547.5" y="-514.4" font-family="Times Roman,serif" font-size="14.00">img_back_content_type :string</text>
<text text-anchor="start" x="1547.5" y="-496.4" font-family="Times Roman,serif" font-size="14.00">img_back_file_size :integer</text>
<text text-anchor="start" x="1547.5" y="-478.4" font-family="Times Roman,serif" font-size="14.00">img_back_updated_at :datetime</text>
</g>
<!-- Token -->
<g id="node16" class="node"><title>Token</title>
<polyline fill="none" stroke="black" points="1807.5,-568 1948.5,-568 "/>
<path fill="none" stroke="black" d="M1948.5,-568C1954.5,-568 1960.5,-574 1960.5,-580"/>
<polyline fill="none" stroke="black" points="1960.5,-580 1960.5,-716 "/>
<path fill="none" stroke="black" d="M1960.5,-716C1960.5,-722 1954.5,-728 1948.5,-728"/>
<polyline fill="none" stroke="black" points="1948.5,-728 1807.5,-728 "/>
<path fill="none" stroke="black" d="M1807.5,-728C1801.5,-728 1795.5,-722 1795.5,-716"/>
<polyline fill="none" stroke="black" points="1795.5,-716 1795.5,-580 "/>
<path fill="none" stroke="black" d="M1795.5,-580C1795.5,-574 1801.5,-568 1807.5,-568"/>
<text text-anchor="middle" x="1878" y="-711.4" font-family="Times Roman,serif" font-size="14.00">Token</text>
<polyline fill="none" stroke="black" points="1795.5,-702 1960.5,-702 "/>
<text text-anchor="start" x="1803.5" y="-685.4" font-family="Times Roman,serif" font-size="14.00">id :integer</text>
<text text-anchor="start" x="1803.5" y="-667.4" font-family="Times Roman,serif" font-size="14.00">name :string</text>
<text text-anchor="start" x="1803.5" y="-649.4" font-family="Times Roman,serif" font-size="14.00">quantity :integer</text>
<text text-anchor="start" x="1803.5" y="-631.4" font-family="Times Roman,serif" font-size="14.00">price :float</text>
<text text-anchor="start" x="1803.5" y="-613.4" font-family="Times Roman,serif" font-size="14.00">status :boolean</text>
<text text-anchor="start" x="1803.5" y="-595.4" font-family="Times Roman,serif" font-size="14.00">created_at :datetime</text>
<text text-anchor="start" x="1803.5" y="-577.4" font-family="Times Roman,serif" font-size="14.00">updated_at :datetime</text>
</g>
</g>
</svg>
